<svg width="1em" height="1em" viewBox="0 0 128 128" fill="currentColor" xmlns="http://www.w3.org/2000/svg" aria-hidden="true" focusable="false" class=""><g clip-path="url(#clip0_55_10822)"><path d="M64 128C68.2435 128 72.3131 126.314 75.3137 123.314C78.3143 120.313 80 116.243 80 112H48C48 116.243 49.6857 120.313 52.6863 123.314C55.6869 126.314 59.7565 128 64 128ZM64 15.344L57.624 16.632C50.3917 18.1056 43.8906 22.0329 39.2212 27.749C34.5518 33.4652 32.0008 40.6191 32 48C32 53.024 30.928 65.576 28.328 77.936C27.048 84.072 25.32 90.464 23.024 96H104.976C102.68 90.464 100.96 84.08 99.672 77.936C97.072 65.576 96 53.024 96 48C95.9974 40.6205 93.4455 33.4684 88.7763 27.7539C84.107 22.0394 77.607 18.1134 70.376 16.64L64 15.344ZM113.76 96C115.544 99.576 117.608 102.408 120 104H8C10.392 102.408 12.456 99.576 14.24 96C21.44 81.6 24 55.04 24 48C24 28.64 37.76 12.48 56.04 8.79204C55.9283 7.67967 56.0511 6.55625 56.4003 5.49423C56.7495 4.4322 57.3174 3.45516 58.0674 2.62611C58.8174 1.79705 59.7328 1.1344 60.7547 0.680878C61.7765 0.227358 62.882 -0.00695801 64 -0.00695801C65.118 -0.00695801 66.2235 0.227358 67.2453 0.680878C68.2672 1.1344 69.1826 1.79705 69.9326 2.62611C70.6826 3.45516 71.2505 4.4322 71.5997 5.49423C71.9489 6.55625 72.0717 7.67967 71.96 8.79204C81.0023 10.6312 89.131 15.5389 94.9699 22.684C100.809 29.8292 103.999 38.7726 104 48C104 55.04 106.56 81.6 113.76 96Z" fill="currentColor"></path></g><defs><clipPath id="clip0_55_10822"><rect width="128" height="128" fill="grey"></rect></clipPath></defs></svg>