<svg xmlns="http://www.w3.org/2000/svg" width="129" height="41" viewBox="0 0 129 41" fill="none"><path d="M31.3641 31.8443C31.5107 31.4858 31.7185 31.1516 31.9793 30.8338C32.24 30.516 32.5863 30.2633 33.0141 30.0759C33.4419 29.8885 33.9227 29.7948 34.4524 29.7948C35.0146 29.7948 35.5158 29.8925 35.9517 30.0841C36.3877 30.2756 36.7381 30.5323 36.9948 30.8542C37.2514 31.1761 37.447 31.5143 37.5774 31.8688C37.7118 32.2274 37.7852 32.59 37.8015 32.9567H31.0911C31.1237 32.5737 31.2133 32.2029 31.3641 31.8443ZM30.1906 38.4372C31.364 39.5945 32.8471 40.1772 34.6479 40.1772C35.6095 40.1772 36.5058 40.0305 37.337 39.733C38.1682 39.4396 38.8771 39.0118 39.4638 38.4535L38.2945 36.7544C37.887 37.1659 37.3696 37.4838 36.7503 37.716C36.1269 37.9442 35.5158 38.0583 34.9169 38.0583C33.8331 38.0583 32.953 37.7445 32.2849 37.1211C31.6126 36.4977 31.2255 35.7153 31.1237 34.7741H40.3031V34.1588C40.3031 32.264 39.7694 30.7116 38.7019 29.4973C37.6344 28.283 36.2206 27.6759 34.4646 27.6759C33.3197 27.6759 32.2848 27.953 31.36 28.5112C30.431 29.0695 29.714 29.8233 29.2087 30.7727C28.6994 31.7221 28.4468 32.7693 28.4468 33.9062C28.4468 35.7683 29.0335 37.276 30.2029 38.4372M17.7762 39.8756V31.5754C18.1144 31.1272 18.5503 30.7482 19.0922 30.4386C19.6341 30.1289 20.2127 29.974 20.832 29.974C21.6183 29.974 22.2172 30.1574 22.6287 30.5201C23.0402 30.8868 23.248 31.5061 23.248 32.3781V39.8715H25.8352V31.4491C25.8352 30.2145 25.5133 29.2773 24.8737 28.6335C24.2299 27.9937 23.2725 27.6718 21.9972 27.6718C21.1212 27.6718 20.3145 27.8593 19.5689 28.2382C18.8233 28.6172 18.2244 29.0695 17.7762 29.5992V23.4382H15.189V39.8715H17.7762V39.8756ZM4.97881 25.9808V39.8756H7.86749V25.9808H12.8341V23.4423H0V25.9808H4.97881Z" fill="#1A2052"></path><path d="M120.779 39.6919C121.663 40.0139 122.616 40.1728 123.635 40.1728C125.191 40.1728 126.405 39.8264 127.281 39.1296C128.157 38.4369 128.593 37.5446 128.593 36.4607C128.593 35.8984 128.491 35.3972 128.287 34.9612C128.084 34.5252 127.815 34.1829 127.477 33.9262C127.139 33.6736 126.756 33.4495 126.324 33.2539C125.892 33.0624 125.452 32.9075 125.008 32.8016C124.564 32.6916 124.128 32.5856 123.692 32.4797C123.26 32.3737 122.873 32.28 122.53 32.1945C122.188 32.1089 121.911 31.9826 121.707 31.8033C121.5 31.6281 121.398 31.4121 121.398 31.1635C121.398 30.7398 121.597 30.3894 122.001 30.1163C122.4 29.8433 122.938 29.7089 123.614 29.7089C124.335 29.7089 125.012 29.8433 125.639 30.1082C126.267 30.3731 126.768 30.7194 127.139 31.1472L128.222 29.3299C126.955 28.2216 125.411 27.6634 123.59 27.6634C122.139 27.6634 120.994 28.0097 120.163 28.7024C119.328 29.3951 118.912 30.2508 118.912 31.2613C118.912 31.8848 119.043 32.4186 119.308 32.8668C119.573 33.315 119.915 33.6614 120.334 33.9018C120.754 34.1422 121.227 34.3337 121.748 34.4722C122.27 34.6108 122.783 34.7452 123.288 34.8756C123.789 35.0101 124.254 35.1283 124.678 35.2423C125.101 35.3524 125.444 35.5154 125.708 35.7232C125.973 35.931 126.104 36.1918 126.104 36.5055C126.104 36.9863 125.9 37.3734 125.497 37.6709C125.093 37.9683 124.511 38.115 123.757 38.115C123.003 38.115 122.274 37.948 121.524 37.6138C120.774 37.2797 120.176 36.8845 119.727 36.424L118.538 38.3065C119.149 38.9015 119.894 39.3578 120.783 39.6797M113.62 39.859V31.7503C113.877 31.3347 114.313 30.968 114.932 30.6501C115.551 30.3323 116.13 30.1734 116.676 30.1734C117.006 30.1734 117.279 30.1978 117.495 30.2467V27.6837C116.749 27.6837 116.036 27.8712 115.352 28.2501C114.671 28.6291 114.093 29.114 113.62 29.7048V27.9608H111.033V39.859H113.62ZM99.5147 31.8277C99.6654 31.4692 99.8692 31.135 100.13 30.8172C100.391 30.4994 100.737 30.2467 101.165 30.0593C101.593 29.8719 102.073 29.7781 102.607 29.7781C103.169 29.7781 103.671 29.8759 104.106 30.0674C104.542 30.259 104.893 30.5157 105.149 30.8376C105.406 31.1595 105.602 31.4977 105.732 31.8522C105.867 32.2108 105.94 32.5734 105.956 32.9401H99.2458C99.2784 32.5571 99.368 32.1822 99.5188 31.8277M98.3454 38.4206C99.5188 39.5779 101.002 40.1605 102.803 40.1605C103.764 40.1605 104.661 40.0139 105.492 39.7164C106.323 39.423 107.032 38.9952 107.614 38.4369L106.445 36.7378C106.038 37.1493 105.52 37.4671 104.897 37.6994C104.274 37.9276 103.662 38.0417 103.063 38.0417C101.98 38.0417 101.1 37.7279 100.431 37.1045C99.7592 36.4811 99.3721 35.6987 99.2702 34.7575H108.45V34.1422C108.45 32.2474 107.916 30.695 106.848 29.4807C105.781 28.2664 104.367 27.6593 102.611 27.6593C101.466 27.6593 100.431 27.9364 99.5065 28.4946C98.5776 29.0528 97.8605 29.8067 97.3553 30.7561C96.846 31.7055 96.5934 32.7527 96.5934 33.8895C96.5934 35.7517 97.1801 37.2593 98.3494 38.4206" fill="#1A2052"></path><path d="M57.7655 0.603172L50.8677 20.2271H58.3237C61.6891 20.2271 64.2559 20.9279 66.0323 22.3296C67.6009 23.5439 68.3872 25.1249 68.3872 27.0685C68.3872 29.1792 67.6376 31.1432 66.1464 32.9565C64.5777 34.8431 62.6791 35.927 60.4545 36.2081C60.7723 35.4054 60.9312 34.6027 60.9312 33.7959C60.9312 31.946 60.2019 30.3609 58.7433 29.0448C57.2847 27.7286 55.5206 27.0685 53.4467 27.0685C51.3729 27.0685 49.6658 27.7286 48.2194 29.0448C46.773 30.3609 46.0478 31.946 46.0478 33.7959C46.0478 35.5358 46.6915 37.0394 47.9831 38.3107C49.2706 39.582 50.8881 40.348 52.8315 40.6088C54.5305 40.8696 56.2254 41 57.904 41C65.7511 41 71.8626 38.7467 76.2384 34.2441C78.9112 31.514 80.2353 28.5925 80.219 25.4712C80.1824 22.5741 78.956 20.1252 76.5481 18.1245C74.3072 16.2746 71.007 15.3496 66.6516 15.3496H62.6995L65.1644 8.59371H79.5712L82.961 0.603172H57.7614H57.7655Z" fill="#1A2052"></path><path d="M104.965 0.6031L80.3811 40.0464H86.9407L111.831 0.6031H104.965Z" fill="#1A2052"></path><path d="M90.388 12.4361C93.8226 12.4361 96.6054 9.65302 96.6054 6.21803C96.6054 2.78304 93.8226 0 90.388 0C86.9533 0 84.1706 2.78304 84.1706 6.21803C84.1706 9.65302 86.9533 12.4361 90.388 12.4361Z" fill="#1A2052"></path></svg>