<svg xmlns="http://www.w3.org/2000/svg" width="1em" height="1em" viewBox="0 0 13 13" fill="currentColor" aria-hidden="true" focusable="false" class=""><circle cx="6.5" cy="6.5" r="6.5" fill="#currentColor"></circle><path d="M3.5872 4L2.65287 6.42889H3.6628C4.11865 6.42889 4.46634 6.51563 4.70695 6.68913C4.91943 6.83942 5.02594 7.0351 5.02594 7.27567C5.02594 7.53692 4.92439 7.78001 4.72241 8.00444C4.50993 8.23795 4.25276 8.3721 3.95143 8.4069C3.99448 8.30754 4.01601 8.20819 4.01601 8.10833C4.01601 7.87936 3.91722 7.68318 3.71965 7.52027C3.52208 7.35737 3.28311 7.27567 3.00221 7.27567C2.7213 7.27567 2.49007 7.35737 2.29415 7.52027C2.09823 7.68318 2 7.87936 2 8.10833C2 8.32368 2.0872 8.50978 2.26214 8.66714C2.43653 8.82449 2.65563 8.91931 2.91887 8.95158C3.14901 8.98386 3.37859 9 3.60596 9C4.66887 9 5.49669 8.7211 6.0894 8.16381C6.45143 7.8259 6.6308 7.46429 6.62859 7.07797C6.62362 6.71939 6.45751 6.41628 6.13135 6.16865C5.82781 5.93968 5.38079 5.8252 4.79084 5.8252H4.25552L4.5894 4.98901H6.54084L7 4H3.58665H3.5872Z" fill="white"></path><path d="M10.1268 4L7 9H7.8343L11 4H10.1268Z" fill="white"></path><path d="M8 6C8.55243 6 9 5.55242 9 5C9 4.44758 8.55243 4 8 4C7.44758 4 7 4.44758 7 5C7 5.55242 7.44758 6 8 6Z" fill="white"></path><path d="M10 9C10.5524 9 11 8.55242 11 8C11 7.44758 10.5524 7 10 7C9.44758 7 9 7.44758 9 8C9 8.55242 9.44758 9 10 9Z" fill="white"></path></svg>